<svg width="15" height="16" viewBox="0 0 15 16" fill="none" xmlns="http://www.w3.org/2000/svg">
<path id="Vector" d="M12.3146 14.851L11.5365 10.1212L12.3146 14.851ZM12.3146 14.851C12.3878 15.294 11.9771 15.641 11.6153 15.443L12.3146 14.851ZM3.17893 14.9325L3.17897 14.9322L3.9571 10.2023L3.99835 9.95158L3.82009 9.77046L0.517618 6.41491C0.517582 6.41487 0.517546 6.41483 0.517509 6.4148C0.510644 6.40777 0.505373 6.39893 0.502317 6.38512C0.498843 6.36942 0.499063 6.34959 0.504449 6.33031C0.506997 6.32118 0.510219 6.31398 0.513147 6.30887C0.513367 6.30848 0.513582 6.30811 0.513793 6.30776L5.09303 5.6137L5.3562 5.57381L5.47005 5.33321L7.50012 1.04317L9.5302 5.33321L9.64405 5.57381L9.90722 5.6137L14.4864 6.30776C14.4866 6.30807 14.4868 6.3084 14.487 6.30874C14.4899 6.31381 14.4931 6.32097 14.4956 6.33003C14.5009 6.3492 14.5011 6.36889 14.4977 6.3845C14.4946 6.39828 14.4893 6.40718 14.4822 6.41437L14.482 6.41462L11.1801 9.77051L11.0019 9.95163L11.0432 10.2023L11.8213 14.9322L11.8213 14.9325C11.8251 14.9554 11.8226 14.9723 11.8184 14.9842L7.73901 12.7486L7.49864 12.6169L7.2583 12.7487L3.18186 14.9841C3.17768 14.9723 3.17515 14.9554 3.17893 14.9325ZM0.500386 6.3098L0.500492 6.30978L0.500386 6.3098Z" stroke="#CCFF00"/>
</svg>
